<svg width="109" height="25" viewBox="0 0 109 25" fill="none" xmlns="http://www.w3.org/2000/svg">
<path d="M5.712 19.384C3.904 19.384 2.576 18.928 1.728 18.016C0.88 17.104 0.456 15.592 0.456 13.48C0.456 11.8 0.736 9.992 1.296 8.056C1.872 6.12 2.784 4.464 4.032 3.088C5.296 1.696 6.896 0.999999 8.832 0.999999C10.032 0.999999 11 1.264 11.736 1.792C12.472 2.32 12.84 3.128 12.84 4.216C12.84 4.904 12.704 5.448 12.432 5.848C12.16 6.232 11.736 6.424 11.16 6.424C10.584 6.424 10.128 6.216 9.792 5.8C10.08 5.656 10.336 5.368 10.56 4.936C10.784 4.504 10.896 4.056 10.896 3.592C10.896 3.16 10.776 2.808 10.536 2.536C10.312 2.264 9.944 2.128 9.432 2.128C8.584 2.128 7.776 2.712 7.008 3.88C6.24 5.032 5.616 6.488 5.136 8.248C4.672 10.008 4.44 11.704 4.44 13.336C4.44 14.552 4.648 15.48 5.064 16.12C5.48 16.76 6.232 17.08 7.32 17.08C8.264 17.08 9.136 16.872 9.936 16.456C10.736 16.04 11.424 15.448 12 14.68L12.552 14.92C12.152 15.928 11.56 16.768 10.776 17.44C9.992 18.112 9.152 18.608 8.256 18.928C7.36 19.232 6.512 19.384 5.712 19.384ZM20.5937 19.144C19.6177 19.144 18.8977 18.888 18.4337 18.376C17.9857 17.848 17.7617 17.2 17.7617 16.432C17.7617 16.096 17.8017 15.72 17.8817 15.304C17.9617 14.872 18.0417 14.456 18.1217 14.056C18.2177 13.656 18.2817 13.4 18.3137 13.288C18.4417 12.728 18.5617 12.176 18.6737 11.632C18.7857 11.088 18.8417 10.648 18.8417 10.312C18.8417 9.496 18.5537 9.088 17.9777 9.088C17.5617 9.088 17.1937 9.296 16.8737 9.712C16.5537 10.112 16.2977 10.64 16.1057 11.296L14.4737 19H11.0177L14.4977 2.68L18.0497 2.2L16.7537 8.248C17.5537 7.352 18.4897 6.904 19.5617 6.904C20.3777 6.904 21.0257 7.128 21.5057 7.576C21.9857 8.024 22.2257 8.704 22.2257 9.616C22.2257 10.08 22.1697 10.6 22.0577 11.176C21.9457 11.736 21.7857 12.424 21.5777 13.24C21.4497 13.736 21.3297 14.224 21.2177 14.704C21.1217 15.168 21.0737 15.536 21.0737 15.808C21.0737 16.128 21.1457 16.376 21.2897 16.552C21.4337 16.728 21.6817 16.816 22.0337 16.816C22.5137 16.816 22.8977 16.648 23.1857 16.312C23.4737 15.96 23.7617 15.424 24.0497 14.704H25.0577C24.4657 16.464 23.7777 17.648 22.9937 18.256C22.2257 18.848 21.4257 19.144 20.5937 19.144ZM27.4789 19.144C26.2949 19.144 25.3749 18.84 24.7189 18.232C24.0629 17.608 23.7349 16.64 23.7349 15.328C23.7349 14.224 23.9509 13.008 24.3829 11.68C24.8149 10.352 25.5189 9.208 26.4949 8.248C27.4709 7.272 28.7109 6.784 30.2149 6.784C31.9749 6.784 32.8549 7.552 32.8549 9.088C32.8549 9.984 32.5989 10.808 32.0869 11.56C31.5749 12.312 30.8949 12.92 30.0469 13.384C29.1989 13.832 28.2949 14.088 27.3349 14.152C27.3029 14.632 27.2869 14.952 27.2869 15.112C27.2869 15.896 27.4229 16.432 27.6949 16.72C27.9669 16.992 28.4069 17.128 29.0149 17.128C29.8789 17.128 30.6149 16.928 31.2229 16.528C31.8469 16.128 32.5269 15.52 33.2629 14.704H34.0789C32.3029 17.664 30.1029 19.144 27.4789 19.144ZM27.5269 13C28.1189 12.968 28.6789 12.76 29.2069 12.376C29.7509 11.992 30.1829 11.504 30.5029 10.912C30.8389 10.32 31.0069 9.696 31.0069 9.04C31.0069 8.384 30.8069 8.056 30.4069 8.056C29.8309 8.056 29.2629 8.56 28.7029 9.568C28.1589 10.576 27.7669 11.72 27.5269 13ZM31.0978 25C30.3458 25 29.6898 24.752 29.1298 24.256C28.5538 23.776 28.2658 23.16 28.2658 22.408C28.2658 21.72 28.4418 21.152 28.7938 20.704C29.1458 20.256 29.6018 19.896 30.1618 19.624C30.7218 19.368 31.4658 19.096 32.3938 18.808L35.2978 5.104C35.6178 3.568 36.1778 2.504 36.9778 1.912C37.7938 1.32 38.6898 1.024 39.6658 1.024C40.4178 1.024 41.0738 1.272 41.6338 1.768C42.2098 2.248 42.4978 2.864 42.4978 3.616C42.4978 3.984 42.4738 4.312 42.4258 4.6H41.2978C41.3298 4.248 41.3458 4.032 41.3458 3.952C41.3458 3.696 41.2578 3.496 41.0818 3.352C40.9058 3.208 40.6898 3.136 40.4338 3.136C40.0978 3.136 39.7698 3.288 39.4498 3.592C39.1298 3.88 38.8978 4.384 38.7538 5.104L38.3458 7H40.0978L39.9298 7.96H38.1538L35.3938 20.92C35.0738 22.472 34.5218 23.536 33.7378 24.112C32.9538 24.704 32.0738 25 31.0978 25ZM30.5458 22.864C31.1858 22.864 31.6418 22.24 31.9138 20.992L32.2258 19.6C31.3778 19.888 30.7298 20.216 30.2818 20.584C29.8178 20.968 29.5858 21.464 29.5858 22.072C29.5858 22.264 29.6818 22.44 29.8738 22.6C30.0658 22.776 30.2898 22.864 30.5458 22.864ZM45.5363 19.432C44.5283 19.432 43.6403 19.256 42.8723 18.904C42.1043 18.552 41.5123 18.064 41.0963 17.44C40.6803 16.8 40.4723 16.064 40.4723 15.232C40.4723 14.528 40.6163 13.888 40.9043 13.312C41.2083 12.736 41.6083 12.28 42.1043 11.944C42.6163 11.608 43.1763 11.44 43.7843 11.44C44.3443 11.44 44.8163 11.584 45.2003 11.872C45.5843 12.144 45.8243 12.528 45.9203 13.024C45.0883 13.024 44.4243 13.248 43.9283 13.696C43.4323 14.128 43.1842 14.72 43.1842 15.472C43.1842 16.16 43.3923 16.712 43.8083 17.128C44.2243 17.544 44.7763 17.752 45.4643 17.752C46.3123 17.752 47.0083 17.472 47.5523 16.912C48.1123 16.336 48.3923 15.616 48.3923 14.752C48.3923 14 48.1843 13.288 47.7683 12.616C47.3523 11.944 46.7283 11.128 45.8963 10.168C45.0323 9.176 44.3763 8.328 43.9283 7.624C43.4963 6.904 43.2803 6.12 43.2803 5.272C43.2803 4.44 43.5123 3.696 43.9763 3.04C44.4403 2.368 45.0803 1.84 45.8963 1.456C46.7123 1.072 47.6323 0.879999 48.6563 0.879999C49.9523 0.879999 50.9843 1.184 51.7523 1.792C52.5363 2.4 52.9283 3.216 52.9283 4.24C52.9283 4.912 52.7603 5.456 52.4243 5.872C52.0883 6.288 51.6483 6.496 51.1043 6.496C50.4963 6.496 50.0083 6.248 49.6403 5.752C49.9443 5.528 50.1843 5.232 50.3603 4.864C50.5363 4.496 50.6243 4.112 50.6243 3.712C50.6243 3.2 50.4723 2.792 50.1683 2.488C49.8643 2.184 49.4483 2.032 48.9203 2.032C48.2803 2.032 47.7523 2.264 47.3363 2.728C46.9363 3.176 46.7363 3.752 46.7363 4.456C46.7363 5.096 46.9203 5.696 47.2883 6.256C47.6563 6.8 48.2323 7.504 49.0163 8.368C49.6563 9.056 50.1683 9.648 50.5523 10.144C50.9523 10.64 51.2883 11.216 51.5603 11.872C51.8483 12.512 51.9922 13.208 51.9922 13.96C51.9922 14.984 51.7043 15.912 51.1283 16.744C50.5683 17.576 49.7923 18.232 48.8003 18.712C47.8243 19.192 46.7363 19.432 45.5363 19.432ZM55.1678 6.112H58.6238L58.2398 7.912C59.0398 7.224 59.9758 6.88 61.0478 6.88C61.9438 6.88 62.6558 7.176 63.1838 7.768C63.7118 8.36 63.9758 9.328 63.9758 10.672C63.9758 11.936 63.7918 13.216 63.4238 14.512C63.0558 15.792 62.4318 16.888 61.5518 17.8C60.6718 18.696 59.5118 19.144 58.0718 19.144C57.0478 19.144 56.3678 18.856 56.0318 18.28L54.7838 24.136L51.1597 25L55.1678 6.112ZM57.3278 17.056C58.0958 17.056 58.7278 16.696 59.2238 15.976C59.7358 15.256 60.1038 14.4 60.3278 13.408C60.5678 12.4 60.6878 11.464 60.6878 10.6C60.6878 9.272 60.2878 8.608 59.4878 8.608C59.1998 8.608 58.9038 8.712 58.5998 8.92C58.3118 9.128 58.0558 9.416 57.8318 9.784L56.4158 16.504C56.5438 16.872 56.8478 17.056 57.3278 17.056ZM73.2343 19.144C72.2583 19.144 71.5383 18.888 71.0743 18.376C70.6263 17.848 70.4023 17.2 70.4023 16.432C70.4023 16.096 70.4423 15.72 70.5223 15.304C70.6023 14.872 70.6823 14.456 70.7623 14.056C70.8583 13.656 70.9223 13.4 70.9543 13.288C71.0823 12.728 71.2023 12.176 71.3143 11.632C71.4263 11.088 71.4823 10.648 71.4823 10.312C71.4823 9.496 71.1943 9.088 70.6183 9.088C70.2023 9.088 69.8343 9.296 69.5143 9.712C69.1943 10.112 68.9383 10.64 68.7463 11.296L67.1143 19H63.6583L67.1383 2.68L70.6903 2.2L69.3943 8.248C70.1943 7.352 71.1303 6.904 72.2023 6.904C73.0183 6.904 73.6663 7.128 74.1463 7.576C74.6263 8.024 74.8663 8.704 74.8663 9.616C74.8663 10.08 74.8103 10.6 74.6983 11.176C74.5863 11.736 74.4263 12.424 74.2183 13.24C74.0903 13.736 73.9703 14.224 73.8583 14.704C73.7623 15.168 73.7143 15.536 73.7143 15.808C73.7143 16.128 73.7863 16.376 73.9303 16.552C74.0743 16.728 74.3223 16.816 74.6743 16.816C75.1543 16.816 75.5383 16.648 75.8263 16.312C76.1143 15.96 76.4023 15.424 76.6903 14.704H77.6983C77.1063 16.464 76.4183 17.648 75.6343 18.256C74.8663 18.848 74.0663 19.144 73.2343 19.144ZM80.1195 19.144C78.9355 19.144 78.0155 18.84 77.3595 18.232C76.7035 17.608 76.3755 16.64 76.3755 15.328C76.3755 14.224 76.5915 13.008 77.0235 11.68C77.4555 10.352 78.1595 9.208 79.1355 8.248C80.1115 7.272 81.3515 6.784 82.8555 6.784C84.6155 6.784 85.4955 7.552 85.4955 9.088C85.4955 9.984 85.2395 10.808 84.7275 11.56C84.2155 12.312 83.5355 12.92 82.6875 13.384C81.8395 13.832 80.9355 14.088 79.9755 14.152C79.9435 14.632 79.9275 14.952 79.9275 15.112C79.9275 15.896 80.0635 16.432 80.3355 16.72C80.6075 16.992 81.0475 17.128 81.6555 17.128C82.5195 17.128 83.2555 16.928 83.8635 16.528C84.4875 16.128 85.1675 15.52 85.9035 14.704H86.7195C84.9435 17.664 82.7435 19.144 80.1195 19.144ZM80.1675 13C80.7595 12.968 81.3195 12.76 81.8475 12.376C82.3915 11.992 82.8235 11.504 83.1435 10.912C83.4795 10.32 83.6475 9.696 83.6475 9.04C83.6475 8.384 83.4475 8.056 83.0475 8.056C82.4715 8.056 81.9035 8.56 81.3435 9.568C80.7995 10.576 80.4075 11.72 80.1675 13ZM87.5304 7H90.9864L90.6744 8.488C91.2184 8.008 91.7064 7.64 92.1384 7.384C92.5864 7.128 93.0664 7 93.5784 7C94.0904 7 94.4904 7.176 94.7784 7.528C95.0824 7.88 95.2344 8.304 95.2344 8.8C95.2344 9.264 95.0824 9.672 94.7784 10.024C94.4744 10.376 94.0504 10.552 93.5064 10.552C93.1544 10.552 92.9144 10.472 92.7864 10.312C92.6744 10.136 92.5864 9.888 92.5224 9.568C92.4744 9.36 92.4264 9.208 92.3784 9.112C92.3304 9.016 92.2424 8.968 92.1144 8.968C91.7784 8.968 91.4904 9.04 91.2504 9.184C91.0264 9.312 90.7304 9.544 90.3624 9.88L88.4424 19H84.9864L87.5304 7ZM98.3059 19.144C97.1379 19.144 96.2259 18.84 95.5699 18.232C94.9139 17.608 94.5859 16.64 94.5859 15.328C94.5859 14.224 94.8019 13.008 95.2339 11.68C95.6659 10.352 96.3699 9.208 97.3459 8.248C98.3219 7.272 99.5619 6.784 101.066 6.784C102.826 6.784 103.706 7.552 103.706 9.088C103.706 9.984 103.45 10.808 102.938 11.56C102.426 12.312 101.746 12.92 100.898 13.384C100.05 13.832 99.1459 14.088 98.1859 14.152C98.1539 14.504 98.1379 14.744 98.1379 14.872C98.1379 16.2 98.6339 16.864 99.6259 16.864C100.074 16.864 100.554 16.744 101.066 16.504C101.578 16.264 102.042 15.96 102.458 15.592C102.026 17.96 100.642 19.144 98.3059 19.144ZM98.3539 13C98.9619 12.984 99.5299 12.784 100.058 12.4C100.602 12.016 101.034 11.528 101.354 10.936C101.69 10.328 101.858 9.696 101.858 9.04C101.858 8.384 101.658 8.056 101.258 8.056C100.698 8.056 100.138 8.568 99.5779 9.592C99.0339 10.6 98.6259 11.736 98.3539 13Z" fill="black"/>
<path d="M106.351 19.096C105.823 19.096 105.375 18.912 105.007 18.544C104.639 18.176 104.455 17.728 104.455 17.2C104.455 16.672 104.639 16.224 105.007 15.856C105.375 15.472 105.823 15.28 106.351 15.28C106.879 15.28 107.327 15.472 107.695 15.856C108.079 16.224 108.271 16.672 108.271 17.2C108.271 17.728 108.079 18.176 107.695 18.544C107.327 18.912 106.879 19.096 106.351 19.096Z" fill="black"/>
<path d="M106.351 19.096C105.823 19.096 105.375 18.912 105.007 18.544C104.639 18.176 104.455 17.728 104.455 17.2C104.455 16.672 104.639 16.224 105.007 15.856C105.375 15.472 105.823 15.28 106.351 15.28C106.879 15.28 107.327 15.472 107.695 15.856C108.079 16.224 108.271 16.672 108.271 17.2C108.271 17.728 108.079 18.176 107.695 18.544C107.327 18.912 106.879 19.096 106.351 19.096Z" fill="#FF7426"/>
</svg>
